<svg xmlns="http://www.w3.org/2000/svg" viewBox="0 0 24 24" width="48" height="48" fill="none" stroke="#3B82F6" stroke-width="2" stroke-linecap="round" stroke-linejoin="round">
  <path d="M19 17h2c.6 0 1-.4 1-1v-3c0-.9-.7-1.7-1.5-1.9C18.7 10.6 16 10 16 10s-1.3-1.4-2.2-2.3C13 6.8 11.5 6 10 6H5c-1.1 0-2 .9-2 2v6c0 .6.4 1 1 1h2"/>
  <circle cx="7" cy="17" r="3" fill="#3B82F6" opacity="0.2"/>
  <circle cx="7" cy="17" r="3"/>
  <circle cx="17" cy="17" r="3" fill="#3B82F6" opacity="0.2"/>
  <circle cx="17" cy="17" r="3"/>
  <path d="M10 17h4"/>
</svg>
